<svg xmlns="http://www.w3.org/2000/svg" version="1.1" xmlns:xlink="http://www.w3.org/1999/xlink" width="512" height="512" x="0" y="0" viewBox="0 0 64 64" style="enable-background:new 0 0 512 512" xml:space="preserve" class=""><g><path d="M17 15.478c0 1.87 1.29 3.45 3.03 3.88 1.516 14.743 22.43 14.732 23.94 0 4.032-1 3.99-6.838-.07-7.77 1.025-5.973-5.038-11.945-10.22-7.51-6.025-3.886-15.464-.174-13.9 7.61a3.983 3.983 0 0 0-2.78 3.79zm3.16-1.8c6.015 2.898 13.629 1.106 17.2-4.68 1.905.042 3.75 1.335 4.46 3.11-.159.656.286 1.384.99 1.37 2.755-.138 2.952 3.896.19 4-.55 0-1 .45-1 1-.56 13.264-19.44 13.267-20 0 0-.55-.45-1-1-1-2.102.008-2.773-2.93-.84-3.8zM55 39.478H37a3 3 0 0 0-3 3v8a3 3 0 0 0 3 3h18a3 3 0 0 0 3-3v-8a3 3 0 0 0-3-3zm-16 12h-2c-1.314-.022-1.315-1.978 0-2h2c1.314.022 1.315 1.978 0 2zm7 0c-2.757 0-5-2.243-5-5 .235-6.618 9.766-6.616 10 0 0 2.757-2.243 5-5 5zm9-8h-2c-1.314-.022-1.315-1.978 0-2h2c1.314.022 1.315 1.978 0 2z" fill="CurrentColor" opacity="1" data-original="#000000"></path><path d="M32 50.478c-.035.579.095 8.704-.1 8.999 6.289-.109 13.58-.69 18.359-4H37c-2.757 0-5-2.242-5-5z" fill="CurrentColor" opacity="1" data-original="#000000"></path><path d="M32.424 40.478H25v-5.832c1.164-.45 2.38-.791 3.65-.978 1.44 2.377 5.26 2.377 6.7 0 1.27.187 2.486.529 3.65.978v2.832h2v-1.919a17.257 17.257 0 0 1 2.824 1.919h2.898c-3.225-3.44-7.86-5.69-12.722-5.97-.11 2.599-3.89 2.597-4 0-8.107.46-15.162 6.24-17.29 13.97h2.096A17.243 17.243 0 0 1 23 35.559v4.919c-2.21 0-4 1.79-4 4v1h8c2.757 0 5 2.243 5 5v-8c0-.712.154-1.387.424-2z" fill="CurrentColor" opacity="1" data-original="#000000"></path><path d="M27 47.478H9a3 3 0 0 0-3 3v8a3 3 0 0 0 3 3h18a3 3 0 0 0 3-3v-8a3 3 0 0 0-3-3zm-16 12H9c-1.314-.022-1.315-1.978 0-2h2c1.314.022 1.315 1.978 0 2zm7 0c-2.757 0-5-2.243-5-5 .235-6.618 9.766-6.616 10 0 0 2.757-2.243 5-5 5zm9-8h-2c-1.314-.022-1.315-1.978 0-2h2c1.314.022 1.315 1.978 0 2z" fill="CurrentColor" opacity="1" data-original="#000000"></path></g></svg>