<svg xmlns="http://www.w3.org/2000/svg" version="1.1" xmlns:xlink="http://www.w3.org/1999/xlink" width="512" height="512" x="0" y="0" viewBox="0 0 512 512" style="enable-background:new 0 0 512 512" xml:space="preserve" class=""><g><path fill-rule="evenodd" d="M337.031 337.031a102.491 102.491 0 1 1-30.021 72.474 102.171 102.171 0 0 1 30.021-72.474zM30.021 30.021A102.491 102.491 0 1 1 0 102.5a102.171 102.171 0 0 1 30.021-72.479zm426.638 355.494a56.62 56.62 0 0 0-16.547-24.525 39.705 39.705 0 0 0-25.613-9.683c-13.192 0-24.986 6.83-33.389 17.872a61.1 61.1 0 0 0-9.034 17.126h-14.484a8.127 8.127 0 1 0 0 16.253h11q-.323 3.42-.326 6.947t.326 6.946h-11a8.127 8.127 0 0 0 0 16.254h14.484a61.1 61.1 0 0 0 9.034 17.126c8.4 11.042 20.2 17.872 33.389 17.872a39.705 39.705 0 0 0 25.613-9.683 56.626 56.626 0 0 0 16.547-24.52 8.123 8.123 0 1 0-15.3-5.46 40.426 40.426 0 0 1-11.659 17.536 23.673 23.673 0 0 1-15.2 5.873c-7.853 0-15.112-4.379-20.5-11.459a42.24 42.24 0 0 1-4.429-7.285h13.988a8.127 8.127 0 1 0 0-16.254h-18.626a58.625 58.625 0 0 1 0-13.893h18.625a8.127 8.127 0 1 0 0-16.253H389.57a42.177 42.177 0 0 1 4.43-7.285c5.388-7.08 12.647-11.459 20.5-11.459a23.673 23.673 0 0 1 15.2 5.873 40.432 40.432 0 0 1 11.659 17.541 8.123 8.123 0 0 0 15.3-5.46zM94.368 44.222V51a30.363 30.363 0 0 0 8.127 59.618 14.106 14.106 0 1 1-14.106 14.106 8.127 8.127 0 0 0-16.254 0 30.385 30.385 0 0 0 22.233 29.258v6.782a8.127 8.127 0 0 0 16.254 0v-6.782a30.363 30.363 0 0 0-8.122-59.614 14.107 14.107 0 1 1 14.1-14.106 8.127 8.127 0 1 0 16.253 0A30.38 30.38 0 0 0 110.622 51v-6.778a8.127 8.127 0 1 0-16.254 0zm136.012 66.4a8.127 8.127 0 0 1 0-16.254h143.569a43.753 43.753 0 0 1 43.683 43.682v124.033l22.068-22.326a8.1 8.1 0 1 1 11.555 11.364L415.493 287.3a8.1 8.1 0 0 1-11.46.1l-36.181-35.761a8.1 8.1 0 1 1 11.365-11.555l22.161 21.9V138.05a27.495 27.495 0 0 0-27.429-27.428zM72 271.918l22.372-22.112v124.143a43.753 43.753 0 0 0 43.683 43.683H281.62a8.127 8.127 0 0 0 0-16.254H138.051a27.495 27.495 0 0 1-27.429-27.429v-123.82l21.857 22.114a8.1 8.1 0 1 0 11.555-11.365L108.273 224.7a8.105 8.105 0 0 0-11.461-.095l-36.181 35.758A8.1 8.1 0 0 0 72 271.918z" fill="CurrentColor" opacity="1" data-original="#000000" class=""></path></g></svg>