<svg xmlns="http://www.w3.org/2000/svg" version="1.1" xmlns:xlink="http://www.w3.org/1999/xlink" width="512" height="512" x="0" y="0" viewBox="0 0 6.827 6.827" style="enable-background:new 0 0 512 512" xml:space="preserve" fill-rule="evenodd" class=""><g><path d="M.751 3.138a.266.266 0 0 0-.256.195h.513a.267.267 0 0 0-.257-.195zM3.361 3.138H1.058a.404.404 0 0 1 .1.265l.013 2.718.221.08.268-.098a.07.07 0 0 1 .047 0l.268.095.267-.098a.07.07 0 0 1 .048 0l.267.096.268-.098a.07.07 0 0 1 .047 0l.268.095.221-.08V3.138zM1.422 3.3h.636a.07.07 0 0 1 0 .14h-.636a.07.07 0 0 1 0-.14zm0 .3h.636a.07.07 0 0 1 0 .14h-.636a.07.07 0 0 1 0-.14zm0 .299h.636a.07.07 0 0 1 0 .14h-.636a.07.07 0 0 1 0-.14zm0 .299h.636a.07.07 0 0 1 0 .14h-.636a.07.07 0 0 1 0-.14zm1.18.008c-.089-.021-.175-.093-.173-.244a.07.07 0 0 1 .14.002c0 .079.036.111.101.109.056-.004.11-.039.113-.077v-.003c.011-.084-.114-.134-.139-.143-.169-.061-.238-.155-.206-.28a.257.257 0 0 1 .179-.192v-.065a.07.07 0 0 1 .14 0v.066a.239.239 0 0 1 .172.245.07.07 0 0 1-.14-.005.1.1 0 0 0-.087-.11c-.046-.006-.107.015-.128.097-.006.022-.016.063.118.112.16.058.246.167.23.292-.009.097-.09.166-.18.192v.066a.07.07 0 0 1-.14 0v-.062zm-1.178.291H3.1a.07.07 0 1 1 0 .14H1.424a.07.07 0 0 1 0-.14zm0 .3H3.1a.07.07 0 0 1 0 .14H1.424a.07.07 0 0 1 0-.14zm0 .3L3.1 5.096a.07.07 0 1 1 0 .14H1.424a.07.07 0 0 1 0-.14zm0 .298H3.1a.07.07 0 0 1 0 .14H1.424a.07.07 0 0 1 0-.14zm0 .3H3.1a.07.07 0 0 1 0 .14H1.424a.07.07 0 1 1 0-.14zM5.42 3.574l-.515.529a.145.145 0 0 1-.187.017l-.394-.283v1.168h1.244v-.4a.07.07 0 1 1 .14 0v.4h.551c.04 0 .073-.033.073-.073v-.554a.7.7 0 0 0-.454-.653l-.458-.15zM3.501 3.998v1.007h.683V3.837l-.394.283a.145.145 0 0 1-.187-.017l-.102-.105zM3.768 3.265l.487.349.486-.35v-.251a.903.903 0 0 1-.973.001v.25z" fill="CurrentColor" opacity="1" data-original="#000000" class=""></path><path d="m4.823 3.378-.448.322.425.306h.005l.466-.48-.448-.148zM3.501 3.439v.358l.203.208c.001.001.003.002.005 0l.425-.305-.448-.322-.185.06zM3.491 2.252a.758.758 0 0 0 .258.573.765.765 0 0 0 1.268-.573v-.285a.07.07 0 0 1 0-.006v-.134c0-.15-.054-.328-.189-.382-.155-.063-.356.047-.358.048a.07.07 0 0 1-.089-.017c-.165-.207-.486-.14-.512-.135-.24.073-.31.2-.347.303a.589.589 0 0 0-.03.195v.413z" fill="CurrentColor" opacity="1" data-original="#000000" class=""></path><path d="M3.272.694 3.48.92a.07.07 0 0 1-.01.104c-.015.011-.309.239-.108.682.043-.25.198-.416.468-.5h.004c.017-.004.386-.091.619.14.262-.112.564-.089.673.265a.66.66 0 0 1 .012.044c.059-.164.082-.366-.09-.646A.494.494 0 0 0 4.826.75C4.596.608 4.24.588 3.8.692a.072.072 0 0 1-.016.002h-.51z" fill="CurrentColor" opacity="1" data-original="#000000" class=""></path></g></svg>