<svg xmlns="http://www.w3.org/2000/svg" version="1.1" xmlns:xlink="http://www.w3.org/1999/xlink" width="512" height="512" x="0" y="0" viewBox="0 0 64 66" style="enable-background:new 0 0 512 512" xml:space="preserve" class=""><g><path d="M44 12c0-5.523 4.476-10 10-10 5.523 0 10 4.476 10 10 0 5.523-4.476 10-10 10-5.523 0-10-4.476-10-10zm12-5a1 1 0 0 0-1.01-1h-1.98A1 1 0 0 0 52 7.003V13a2 2 0 0 0 2 2h4a1 1 0 0 0 1-1.01v-1.98c0-.558-.443-1.01-.999-1.01H56zm-14.962 6c.51 6.713 6.118 12 12.962 12 1.074 0 2.117-.13 3.115-.375L54.96 35.392A2 2 0 0 1 53 37H20.396l1.273 7H51a1 1 0 0 1 1 1v2a1 1 0 0 1-1 1H20a2 2 0 0 1-1.968-1.642L10.331 4H1a1 1 0 0 1-1-1V1a1 1 0 0 1 1-1h11a2 2 0 0 1 1.968 1.642L16.033 13zM22 66a7 7 0 1 1 0-14 7 7 0 0 1 0 14zm0-4a3 3 0 1 0 0-6 3 3 0 0 0 0 6zm24 4a7 7 0 1 1 0-14 7 7 0 0 1 0 14zm0-4a3 3 0 1 0 0-6 3 3 0 0 0 0 6z" fill="CurrentColor" opacity="1" data-original="#000000" class=""></path></g></svg>