<svg xmlns="http://www.w3.org/2000/svg" version="1.1" xmlns:xlink="http://www.w3.org/1999/xlink" width="512" height="512" x="0" y="0" viewBox="0 0 60 60" style="enable-background:new 0 0 512 512" xml:space="preserve" class=""><g><path d="M53 26h-1v-3c0-.55-.45-1-1-1s-1 .45-1 1v3h-4v-3c0-.55-.45-1-1-1s-1 .45-1 1v3h-1c-.55 0-1 .45-1 1v6a1 1 0 0 0 .41.81c2.17 1.58 2.74 2.27 2.59 4.11A1.007 1.007 0 0 0 46 39h1v7c0 2.2-1.16 4.15-3 5.2V42c0-3.91-2.51-7.25-6-8.48V54h5c.38 0 .72-.22.88-.54C46.96 52.29 49 49.36 49 46v-7h1a1.007 1.007 0 0 0 1-1.08c-.15-1.84.42-2.53 2.59-4.11A1 1 0 0 0 54 33v-6c0-.55-.45-1-1-1zM16.25 23c1.76 4.82 5.13 8 8.75 8s6.99-3.18 8.75-8zM35 15h-.29c-.46-1.78-1.33-3.4-2.54-4.74C30.99 8.97 29.56 8.03 28 7.5V7c0-.55-.45-1-1-1h-4c-.55 0-1 .45-1 1v.5c-3.24 1.1-5.78 3.93-6.71 7.5H15c-.55 0-1 .45-1 1v4c0 .55.45 1 1 1h20c.55 0 1-.45 1-1v-4c0-.55-.45-1-1-1zm-7.66-1.01-2 3.1c-.19.3-.51.46-.84.46-.19 0-.38-.05-.54-.16-.47-.3-.6-.92-.3-1.38l1-1.56H23.5c-.37 0-.71-.2-.88-.53a.963.963 0 0 1 .05-1.02l2-3c.3-.46.92-.59 1.38-.28s.59.93.28 1.39l-.96 1.44h1.13c.37 0 .7.2.88.52.17.32.16.72-.04 1.02zM6 42v11c0 .55.45 1 1 1h5V33.52C8.51 34.75 6 38.09 6 42zM32.12 33.04l-2.55-1.19c-.02-.02-.03-.05-.05-.07a.992.992 0 0 0-1.39-.23L25 33.77l-3.13-2.22a.984.984 0 0 0-1.39.23l-2.52 1.25c-.2.04-.4.12-.55.28-.38.4-.37 1.03.03 1.41l4.6 4.41c.19.18.44.28.69.28h.11c.3-.04.56-.2.73-.45L25 36.81l1.43 2.15c.17.25.43.41.73.45h.11c.25 0 .5-.1.69-.28l4.6-4.41c.4-.38.41-1.01.03-1.41-.04-.04-.08-.08-.12-.11-.11-.08-.23-.13-.35-.16z" fill="CurrentColor" opacity="1" data-original="#000000" class=""></path><path d="M34.69 33c.12.34.19.69.18 1.06-.02.8-.34 1.55-.92 2.11l-4.61 4.41c-.56.54-1.3.83-2.07.83-.11 0-.22 0-.33-.02-.77-.08-1.45-.47-1.94-1.04-.49.57-1.17.96-1.94 1.04-.11.02-.22.02-.33.02-.77 0-1.51-.29-2.07-.83l-4.61-4.41c-.58-.56-.9-1.31-.92-2.11-.01-.36.06-.72.18-1.06H15c-.34 0-.67.02-1 .06V54h22V33.06c-.33-.04-.66-.06-1-.06z" fill="CurrentColor" opacity="1" data-original="#000000" class=""></path></g></svg>