<svg xmlns="http://www.w3.org/2000/svg" version="1.1" xmlns:xlink="http://www.w3.org/1999/xlink" width="512" height="512" x="0" y="0" viewBox="0 0 64 64" style="enable-background:new 0 0 512 512" xml:space="preserve" class=""><g><path d="M5.39 15.396c.144.463.336.924.572 1.37l.258.486-1.13 1.979 1.748 1.749 1.979-1.129.486.257c.447.237.908.429 1.37.571l.524.162.601 2.193h2.473l.601-2.193.524-.162a7.9 7.9 0 0 0 1.37-.571l.485-.257 1.98 1.129 1.748-1.749-1.13-1.979.258-.486a7.97 7.97 0 0 0 .572-1.37l.161-.525 2.193-.6v-2.474l-2.193-.599-.162-.525a7.923 7.923 0 0 0-.571-1.369l-.258-.486 1.13-1.979-1.747-1.749-1.98 1.129-.485-.257a7.957 7.957 0 0 0-1.37-.572l-.524-.162-.601-2.193h-2.473l-.601 2.193-.524.162a7.93 7.93 0 0 0-1.37.572l-.487.257L6.838 5.09 5.09 6.839l1.13 1.979-.258.487a7.845 7.845 0 0 0-.571 1.369l-.162.525-2.193.599v2.474l2.193.6zm7.645-7.361a5 5 0 1 1-.001 10.001 5 5 0 0 1 .001-10.001zM52 43c-4.963 0-9 4.037-9 9s4.037 9 9 9 9-4.037 9-9-4.037-9-9-9zm-3 14.414-2.707-2.707 1.414-1.414L49 54.586l7.293-7.293 1.414 1.414z" fill="CurrentColor" opacity="1" data-original="#000000" class=""></path><path d="M56 12h-3v-1c0-1.654-1.346-3-3-3H34c-1.654 0-3 1.346-3 3v1h-6v2h6v1c0 1.654 1.346 3 3 3h16c1.654 0 3-1.346 3-3v-1h3c2.757 0 5 2.243 5 5v7c0 2.757-2.243 5-5 5H43v-1c0-1.654-1.346-3-3-3H24c-1.654 0-3 1.346-3 3v1H8c-3.859 0-7 3.141-7 7v8c0 3.859 3.141 7 7 7h3v1c0 1.654 1.346 3 3 3h16c1.654 0 3-1.346 3-3v-1h8.05c-.03-.33-.05-.662-.05-1s.021-.67.05-1H33v-1c0-1.654-1.346-3-3-3H14c-1.654 0-3 1.346-3 3v1H8c-2.757 0-5-2.243-5-5v-8c0-2.757 2.243-5 5-5h13v1c0 1.654 1.346 3 3 3h16c1.654 0 3-1.346 3-3v-1h13c3.859 0 7-3.14 7-7v-7c0-3.86-3.141-7-7-7zm-19 2h-2v-2h2zm4 0h-2v-2h2zm4 0h-2v-2h2zm4 0h-2v-2h2zM27 51h2v2h-2zm-4 0h2v2h-2zm-4 0h2v2h-2zm-4 0h2v2h-2zm12-18h-2v-2h2zm4 0h-2v-2h2zm4 0h-2v-2h2zm4 0h-2v-2h2z" fill="CurrentColor" opacity="1" data-original="#000000" class=""></path></g></svg>