<svg xmlns="http://www.w3.org/2000/svg" version="1.1" xmlns:xlink="http://www.w3.org/1999/xlink" width="512" height="512" x="0" y="0" viewBox="0 0 24 24" style="enable-background:new 0 0 512 512" xml:space="preserve" class=""><g><path d="M20 3.25H4c-.96 0-1.75.79-1.75 1.75v1c0 .96.79 1.75 1.75 1.75h16c.96 0 1.75-.79 1.75-1.75V5c0-.96-.79-1.75-1.75-1.75zM20.25 6c0 .14-.11.25-.25.25H4c-.14 0-.25-.11-.25-.25V5c0-.14.11-.25.25-.25h16c.14 0 .25.11.25.25zM20 9.25H4c-.96 0-1.75.79-1.75 1.75v1c0 .96.79 1.75 1.75 1.75h16c.96 0 1.75-.79 1.75-1.75v-1c0-.96-.79-1.75-1.75-1.75zm.25 2.75c0 .14-.11.25-.25.25H4c-.14 0-.25-.11-.25-.25v-1c0-.14.11-.25.25-.25h16c.14 0 .25.11.25.25zM20 15.25H4c-.96 0-1.75.79-1.75 1.75v1c0 .96.79 1.75 1.75 1.75h16c.96 0 1.75-.79 1.75-1.75v-1c0-.96-.79-1.75-1.75-1.75zm.25 2.75c0 .14-.11.25-.25.25H4c-.14 0-.25-.11-.25-.25v-1c0-.14.11-.25.25-.25h16c.14 0 .25.11.25.25z" fill="CurrentColor" opacity="1" data-original="#000000" class=""></path></g></svg>