<svg xmlns="http://www.w3.org/2000/svg" version="1.1" xmlns:xlink="http://www.w3.org/1999/xlink" width="512" height="512" x="0" y="0" viewBox="0 0 64 64" style="enable-background:new 0 0 512 512" xml:space="preserve" class=""><g><circle cx="50" cy="50" r="1" fill="CurrentColor" opacity="1" data-original="#000000" class=""></circle><path d="M52.816 49h4.104A7.005 7.005 0 0 0 51 43.08v4.104A2.997 2.997 0 0 1 52.816 49zM51 52.816v4.104A7.005 7.005 0 0 0 56.92 51h-4.104A2.997 2.997 0 0 1 51 52.816zM14.618 23l-1.449 2.898C14.308 26.6 15.613 27 17 27s2.692-.4 3.831-1.102L19.382 23zM49 47.184V43.08A7.005 7.005 0 0 0 43.08 49h4.104A2.997 2.997 0 0 1 49 47.184zM18 9.078V21h2.618l1.801 3.602C24.001 22.956 25 20.61 25 18c0-4.581-3.06-8.366-7-8.922zM21 16a1 1 0 1 1 0-2 1 1 0 0 1 0 2zM49 56.92v-4.104A2.997 2.997 0 0 1 47.184 51H43.08A7.005 7.005 0 0 0 49 56.92zM16 21V9.078c-3.94.556-7 4.341-7 8.922 0 2.61.999 4.956 2.581 6.602L13.382 21zm-4-6a1 1 0 1 1 2 0 1 1 0 0 1-2 0zM32 54h-8v-3h-6v3h-8v-3H3v9a1 1 0 0 0 1 1h33V51h-5z" fill="CurrentColor" opacity="1" data-original="#000000" class=""></path><path d="M31 3H4a1 1 0 0 0-1 1v29h28zM6 5a1 1 0 1 1 0 2 1 1 0 0 1 0-2zm0 26a1 1 0 1 1 0-2 1 1 0 0 1 0 2zm11-2c-5.514 0-10-4.935-10-11S11.486 7 17 7s10 4.935 10 11-4.486 11-10 11zm11 2a1 1 0 1 1 0-2 1 1 0 0 1 0 2zm0-24a1 1 0 1 1 0-2 1 1 0 0 1 0 2zM3 49h7v-3h8v3h6v-3h8v3h5V37h24v-2H3zM33 33h28V19H33zm18-6h2v-6h2v6h2v2h-2v2h-2v-2h-2zm-8-4h2v-2h2v2h2v2h-2v6h-2v-6h-2zm-8 4h2v-6h2v6h2v2h-2v2h-2v-2h-2zM60 3H33v14h28V4a1 1 0 0 0-1-1zm-6 11c-1.477 0-2.752-.809-3.445-2h-7.11c-.693 1.191-1.968 2-3.445 2a4 4 0 0 1 0-8c1.477 0 2.752.809 3.445 2h7.109c.694-1.191 1.969-2 3.446-2a4 4 0 0 1 0 8z" fill="CurrentColor" opacity="1" data-original="#000000" class=""></path><path d="M39 61h21a1 1 0 0 0 1-1V39H39zm11-20c4.963 0 9 4.037 9 9s-4.037 9-9 9-9-4.037-9-9 4.037-9 9-9z" fill="CurrentColor" opacity="1" data-original="#000000" class=""></path><circle cx="28" cy="50" r="1" fill="CurrentColor" opacity="1" data-original="#000000" class=""></circle><circle cx="14" cy="50" r="1" fill="CurrentColor" opacity="1" data-original="#000000" class=""></circle></g></svg>