<svg xmlns="http://www.w3.org/2000/svg" version="1.1" xmlns:xlink="http://www.w3.org/1999/xlink" width="512" height="512" x="0" y="0" viewBox="0 0 512 512" style="enable-background:new 0 0 512 512" xml:space="preserve" class=""><g><path d="M301.996 16.003h-60.999v44.999c0 8.291-6.709 15-15 15s-15-6.709-15-15V16.003h-60.999c-8.291 0-15 6.709-15 15v134.998h181.998V31.002c0-8.29-6.709-14.999-15-14.999zM510.412 114.293c-3.706-7.412-12.729-10.371-20.127-6.709l-43.417 21.709c-15.337 7.676-24.873 23.1-24.873 40.254V376H30c-16.569 0-30 13.431-30 30 0 16.567 13.431 30 30 30h2.763C31.082 440.715 30 445.716 30 451c0 24.814 20.186 44.999 45 44.999s44.999-20.186 44.999-44.999c0-5.284-1.082-10.285-2.763-15h217.523c-1.681 4.715-2.763 9.716-2.763 15 0 24.814 20.186 44.999 45 44.999s44.999-20.186 44.999-44.999c0-5.284-1.082-10.285-2.763-15h2.763c16.569 0 30-13.433 30-30V169.548c0-5.728 3.179-10.869 8.291-13.418l43.417-21.709c7.412-3.708 10.415-12.717 6.709-20.128zM74.999 465.997c-8.276 0-15-6.724-15-15s6.724-15 15-15 15 6.723 15 15c0 8.276-6.724 15-15 15zm301.997 0c-8.276 0-15-6.724-15-15s6.724-15 15-15 15 6.723 15 15c-.001 8.276-6.725 15-15 15z" fill="CurrentColor" opacity="1" data-original="#000000" class=""></path><path d="M149.998 196.001v45c0 8.291-6.709 15-15 15s-15-6.709-15-15v-45H74.999c-8.291 0-15 6.709-15 15v134.998h150.998V196.001h-60.999zM376.996 196.001h-45V241c0 8.291-6.709 15-15 15s-15-6.709-15-15v-45h-60.999v149.998h150.998V211c0-8.29-6.709-14.999-14.999-14.999z" fill="CurrentColor" opacity="1" data-original="#000000" class=""></path></g></svg>