<svg xmlns="http://www.w3.org/2000/svg" version="1.1" xmlns:xlink="http://www.w3.org/1999/xlink" width="512" height="512" x="0" y="0" viewBox="0 0 512 512" style="enable-background:new 0 0 512 512" xml:space="preserve" class=""><g><path d="M391 271c-66.273 0-120 53.727-120 120s53.727 121 120 121 121-54.727 121-121-54.727-120-121-120zm0 105c24.813 0 45 20.188 45 45 0 19.531-12.578 36.023-30 42.238V497h-30v-33.762c-17.422-6.215-30-22.707-30-42.238h30c0 8.277 6.723 15 15 15s15-6.723 15-15-6.723-15-15-15c-24.813 0-45-20.188-45-45 0-19.531 12.578-36.023 30-42.238V286h30v32.762c17.422 6.215 30 22.707 30 42.238h-30c0-8.277-6.723-15-15-15s-15 6.723-15 15 6.723 15 15 15zM451 30h-60V0h-30v30h-30V0h-30v30H151V0h-30v30H91V0H61v30H0v91h451zm0 0" fill="CurrentColor" opacity="1" data-original="#000000" class=""></path><path d="M241 391c0-82.703 67.297-150 150-150 21.355 0 41.594 4.633 60 12.715V151H0v300h253.715C245.633 432.594 241 412.355 241 391zm90-210h60v30h-60zm-90 0h60v30h-60zm0 60h60v30h-60zm-120 90H61v-30h60zm0-60H61v-30h60zm0-60H61v-30h60zm90 120h-60v-30h60zm0-60h-60v-30h60zm0-60h-60v-30h60zm0 0" fill="CurrentColor" opacity="1" data-original="#000000" class=""></path></g></svg>