<svg xmlns="http://www.w3.org/2000/svg" version="1.1" xmlns:xlink="http://www.w3.org/1999/xlink" width="512" height="512" x="0" y="0" viewBox="0 0 512 512" style="enable-background:new 0 0 512 512" xml:space="preserve" class=""><g><path d="M45.06 316.82H0V512h45.06c8.28 0 15-6.72 15-15V331.82c0-8.28-6.72-15-15-15zM334.5 230c51 0 92.5-41.5 92.5-92.5S385.5 45 334.5 45 242 86.5 242 137.5s41.5 92.5 92.5 92.5zm60-100h10c4.14 0 7.5 3.36 7.5 7.5s-3.36 7.5-7.5 7.5h-10c-4.14 0-7.5-3.36-7.5-7.5s3.36-7.5 7.5-7.5zm-81.04-41.65V72.5c0-4.14 3.36-7.5 7.5-7.5s7.5 3.36 7.5 7.5v14.17h12.08V72.5c0-4.14 3.36-7.5 7.5-7.5s7.5 3.36 7.5 7.5v14.17h4.96c4.14 0 7.5 3.36 7.5 7.5s-3.36 7.5-7.5 7.5H323c-7.44 0-13.5 6.35-13.5 14.17s6.06 14.17 13.5 14.17h23c15.71 0 28.5 13.08 28.5 29.17 0 12.66-7.92 23.45-18.96 27.48v15.85c0 4.14-3.36 7.5-7.5 7.5s-7.5-3.36-7.5-7.5v-14.17h-12.08v14.17c0 4.14-3.36 7.5-7.5 7.5s-7.5-3.36-7.5-7.5v-14.17h-4.96c-4.14 0-7.5-3.36-7.5-7.5s3.36-7.5 7.5-7.5H346c7.44 0 13.5-6.35 13.5-14.17S353.44 145 346 145h-23c-15.71 0-28.5-13.08-28.5-29.17 0-12.66 7.92-23.45 18.96-27.48zM257 137.5c0-4.14 3.36-7.5 7.5-7.5h10c4.14 0 7.5 3.36 7.5 7.5s-3.36 7.5-7.5 7.5h-10c-4.14 0-7.5-3.36-7.5-7.5z" fill="CurrentColor" opacity="1" data-original="#000000" class=""></path><path d="M334.5 275c75.82 0 137.5-61.68 137.5-137.5S410.32 0 334.5 0 197 61.68 197 137.5 258.68 275 334.5 275zm0-245C393.78 30 442 78.22 442 137.5S393.78 245 334.5 245 227 196.78 227 137.5 275.22 30 334.5 30zM326.42 362.45l-66.53 28.38-12.23 14.98 39.89 23.34c6.89 4.03 15.49 4.1 22.44.18l152.11-86.01-.97-1.86c-3.72-7.14-10.67-11.44-18.14-12.04l-.35-.99c-4-11.39-16.39-17.58-27.85-14.05l-1.04-3.38c-1.79-5.82-5.75-10.57-11.16-13.37s-11.57-3.3-17.36-1.4l-50.96 16.72 5.94 11.91c3.37 6.75 3.81 14.69 1.21 21.77s-8.08 12.85-15.02 15.81z" fill="CurrentColor" opacity="1" data-original="#000000" class=""></path><path d="m504.21 348.65-8.21-7.26-178.63 101c-5.71 3.22-12.08 4.82-18.44 4.82s-13.13-1.71-18.95-5.12l-47.29-27.67c-1.16-.68-2.19-1.61-2.86-2.78-1.62-2.81-1.26-6.18.67-8.53l18.94-23.2c.77-.94 1.75-1.68 2.87-2.15l67.88-28.96c3.21-1.37 5.85-3.9 7.11-7.15 1.28-3.32 1.1-6.9-.48-10.08l-7.55-15.12c-3.53-7.06-11.92-10.18-19.2-7.14l-49.39 20.64-39.94-21.98a37.68 37.68 0 0 0-18.1-4.65h-44.87c-11.79 0-23.03 5.64-30.08 15.09l-18.9 25.33H75.07v141.35h41.08v-60.45c0-4.11 3.17-7.69 7.27-7.81 4.25-.13 7.73 3.28 7.73 7.5v68.81l14.18 11.27a27.95 27.95 0 0 0 17.35 6.06H307.7c5.63 0 11.06-1.68 15.71-4.85L502.46 383.5c5.8-3.96 9.31-10.33 9.54-17.39.22-6.67-2.78-13.03-7.78-17.45zm-373.07 45.66c0 4.14-3.36 7.5-7.5 7.5s-7.5-3.36-7.5-7.5v-10c0-4.14 3.36-7.5 7.5-7.5s7.5 3.36 7.5 7.5z" fill="CurrentColor" opacity="1" data-original="#000000" class=""></path></g></svg>