<svg xmlns="http://www.w3.org/2000/svg" version="1.1" xmlns:xlink="http://www.w3.org/1999/xlink" width="512" height="512" x="0" y="0" viewBox="0 0 68 68" style="enable-background:new 0 0 512 512" xml:space="preserve" class=""><g><path d="M60.42 27.19c-1.19-2.82-1.76-4.24-3-7L60 14.77 53.19 8l-5.35 2.57c-2.79-1.19-4.21-1.76-7-2.95L38.82 2h-9.64l-2 5.58c-2.83 1.19-4.25 1.76-7 2.95L14.81 8 8 14.77l2.57 5.39c-1.19 2.79-1.76 4.21-2.95 7L2 29.18v9.64l5.58 2c1.19 2.83 1.76 4.25 2.95 7L8 53.19c3.41 3.44 3.41 3.44 6.85 6.85l5.35-2.57c2.79 1.19 4.21 1.76 7 3l2 5.58h9.64l2-5.58c2.82-1.19 4.24-1.76 7-3L53.19 60c3.44-3.41 3.44-3.41 6.85-6.85l-2.57-5.35c1.19-2.79 1.76-4.21 3-7l5.58-2v-9.62zM34 51.27A17.28 17.28 0 1 1 51.28 34 17.28 17.28 0 0 1 34 51.27z" fill="CurrentColor" opacity="1" data-original="#000000" class=""></path><path d="M45.22 40.63a13.76 13.76 0 0 1-22.44 0 11.78 11.78 0 0 1 5.83-6.82A9.44 9.44 0 0 0 34 35.5a9.35 9.35 0 0 0 5.38-1.7 11.75 11.75 0 0 1 5.84 6.83zM39.28 26.85A5.28 5.28 0 1 1 34 21.58a5.27 5.27 0 0 1 5.28 5.27z" fill="CurrentColor" opacity="1" data-original="#000000" class=""></path></g></svg>