<svg xmlns="http://www.w3.org/2000/svg" version="1.1" xmlns:xlink="http://www.w3.org/1999/xlink" width="512" height="512" x="0" y="0" viewBox="0 0 60 60" style="enable-background:new 0 0 512 512" xml:space="preserve" class=""><g><path d="M20.413 38.968a.978.978 0 0 0-.413.802V42h6c0-.526.105-1.036.299-1.511l-4.986-1.66a.991.991 0 0 0-.901.14zM6 48v6c1.654 0 3-1.346 3-3s-1.346-3-3-3zM41 42v-2.31a.998.998 0 0 0-.403-.805.993.993 0 0 0-.882-.157l-5.992 1.802c.18.458.278.957.278 1.469h7zM18 42v-2a9.972 9.972 0 0 0-5.991 2zM31.408 40.585l-.038-.043c-.672-.668-2.027-.713-2.784.045-.393.413-.587.901-.587 1.413h4c0-.512-.192-.994-.541-1.356-.011-.011-.028-.032-.046-.053l-.005-.006zM24.553 6.105a1.002 1.002 0 0 1 1.326.417c.079.122 2.293 3.298 14.121 3.469-.005-4.407-3.591-7.992-8-7.992h-4c-4.397 0-7.975 3.566-7.998 7.958 1.268-.081 3.525-.328 5.525-1.055-.997-.705-1.341-1.295-1.422-1.456a1 1 0 0 1 .447-1.342zM36.442 37.624a17.011 17.011 0 0 1-.685-4.709l-.97.848A4.981 4.981 0 0 1 31.499 35h-3a4.986 4.986 0 0 1-3.29-1.238l-.965-.844a16.912 16.912 0 0 1-.646 4.563l4.015 1.336c1.409-1.033 3.407-1.019 4.797.019l4.031-1.212zM43 40v2h5.991A9.972 9.972 0 0 0 43 40z" fill="CurrentColor" opacity="1" data-original="#000000" class=""></path><path d="M44 19.01c0-1.3-.836-2.408-2-2.819v1.81a1 1 0 1 1-2 0v-6.009c-6.083-.086-9.882-.945-12.23-1.898-2.639 1.401-6.09 1.775-7.77 1.872v3.035l-.002.01.002.01v2.98a1 1 0 1 1-2 0v-1.797c-1.161.413-2 1.509-2 2.807a2.999 2.999 0 0 0 3 2.99 1 1 0 0 1 1 1v2.18c0 .87.375 1.697 1.028 2.268l5.5 4.81a2.989 2.989 0 0 0 1.972.743h3c.726 0 1.425-.264 1.97-.742l5.501-4.811a3.006 3.006 0 0 0 1.028-2.268v-2.18a1 1 0 0 1 1-1c1.654 0 3-1.342 3-2.99zM29 22h2a1 1 0 1 1 0 2h-2a1 1 0 1 1 0-2zm-3-3a1 1 0 1 1-2 0v-1a1 1 0 1 1 2 0zm-3-3a1 1 0 1 1 0-2h4a1 1 0 1 1 0 2zm8 15h-2a1 1 0 1 1 0-2h2a1 1 0 1 1 0 2zm1-3h-4a1 1 0 1 1 0-2h4a1 1 0 1 1 0 2zm4-9a1 1 0 1 1-2 0v-1a1 1 0 1 1 2 0zm1-3h-4a1 1 0 1 1 0-2h4a1 1 0 1 1 0 2zM53 48h-2v2h2a1 1 0 0 0 0-2zM25.5 48c-.827 0-1.5.673-1.5 1.5v.5h3v-.5c0-.827-.673-1.5-1.5-1.5z" fill="CurrentColor" opacity="1" data-original="#000000" class=""></path><path d="M57 44H3c-.551 0-1 .448-1 1v12c0 .552.449 1 1 1h54a1 1 0 0 0 1-1V45a1 1 0 0 0-1-1zM6 56H5a1 1 0 0 1-1-1v-8a1 1 0 0 1 1-1h1c2.757 0 5 2.243 5 5s-2.243 5-5 5zm11-6a1 1 0 1 1 0 2h-2v2h4a1 1 0 1 1 0 2h-5a1 1 0 0 1-1-1v-8a1 1 0 0 1 1-1h5a1 1 0 1 1 0 2h-4v2zm12 5a1 1 0 1 1-2 0v-3h-3v3a1 1 0 1 1-2 0v-5.5c0-1.93 1.57-3.5 3.5-3.5s3.5 1.57 3.5 3.5zm8 1h-5a1 1 0 0 1-1-1v-8a1 1 0 1 1 2 0v7h4a1 1 0 1 1 0 2zm7-6a1 1 0 1 1 0 2h-2v2h4a1 1 0 1 1 0 2h-5a1 1 0 0 1-1-1v-8a1 1 0 0 1 1-1h5a1 1 0 1 1 0 2h-4v2zm11.895 4.553a1 1 0 1 1-1.789.894L52.382 52H51v3a1 1 0 1 1-2 0v-8a1 1 0 0 1 1-1h3c1.654 0 3 1.346 3 3 0 1.134-.64 2.112-1.571 2.621l1.466 2.931z" fill="CurrentColor" opacity="1" data-original="#000000" class=""></path></g></svg>