<svg xmlns="http://www.w3.org/2000/svg" version="1.1" xmlns:xlink="http://www.w3.org/1999/xlink" width="512" height="512" x="0" y="0" viewBox="0 0 512 512" style="enable-background:new 0 0 512 512" xml:space="preserve" class=""><g><path d="M241 15.5v31c0 8.291 6.709 15 15 15s15-6.709 15-15v-31c0-8.291-6.709-15-15-15s-15 6.709-15 15zM61 256.5c0-8.291-6.709-15-15-15H15c-8.291 0-15 6.709-15 15s6.709 15 15 15h31c8.291 0 15-6.709 15-15zM497 241.5h-31c-8.291 0-15 6.709-15 15s6.709 15 15 15h31c8.291 0 15-6.709 15-15s-6.709-15-15-15zM66.64 348.507l-25.986 15c-7.178 4.146-9.639 13.315-5.493 20.493 4.191 7.236 13.394 9.593 20.493 5.493l25.986-15c7.178-4.146 9.639-13.315 5.493-20.493-4.16-7.178-13.345-9.639-20.493-5.493zM445.36 164.493l25.986-15c7.178-4.146 9.639-13.315 5.493-20.493s-13.359-9.653-20.493-5.493l-25.986 15c-7.178 4.146-9.639 13.315-5.493 20.493 4.191 7.236 13.394 9.593 20.493 5.493zM363.007 41.153l-15 25.986c-4.146 7.178-1.685 16.348 5.493 20.493 7.108 4.105 16.307 1.732 20.493-5.493l15-25.986c4.146-7.178 1.685-16.348-5.493-20.493s-16.348-1.684-20.493 5.493zM128.5 35.66c-7.178 4.146-9.639 13.315-5.493 20.493l15 25.986c4.191 7.236 13.394 9.593 20.493 5.493 7.178-4.146 9.639-13.315 5.493-20.493l-15-25.986c-4.16-7.177-13.374-9.638-20.493-5.493zM471.347 363.507l-25.986-15c-7.163-4.146-16.348-1.685-20.493 5.493s-1.685 16.348 5.493 20.493l25.986 15c7.108 4.105 16.307 1.732 20.493-5.493 4.145-7.178 1.684-16.348-5.493-20.493zM81.64 138.507l-25.986-15c-7.163-4.16-16.348-1.685-20.493 5.493s-1.685 16.348 5.493 20.493l25.986 15c7.103 4.103 16.304 1.738 20.493-5.493 4.145-7.178 1.684-16.348-5.493-20.493zM256 121.947c-67.385.022-117.327 45.428-130.884 100.891-11.572 47.314 1.934 95.61 36.108 129.199 10.166 9.988 16.591 24.023 18.765 39.463h152.08c2.292-15.406 9.031-29.762 19.688-40.43C377.069 325.699 391 292.11 391 256.5c0-72.603-57.285-134.573-135-134.553zm0 239.553c-8.284 0-15-6.716-15-15 0-8.286 6.716-15 15-15s15 6.714 15 15c0 8.284-6.716 15-15 15zm16.626-78.179L271 286.5c0 8.291-6.709 15-15 15s-15-6.709-15-15c0-14.194 8.057-26.089 20.537-31.055 5.757-2.285 9.463-7.764 9.463-13.945 0-8.276-6.724-15-15-15s-15 6.724-15 15c0 8.291-6.709 15-15 15s-15-6.709-15-15c0-24.814 20.186-45 45-45s45 20.186 45 45c0 18.545-11.133 34.966-28.374 41.821zM181 432.149c0 44.502 32.944 79.351 75 79.351 41.353 0 75-33.647 75-75v-15H181z" fill="CurrentColor" opacity="1" data-original="#000000" class=""></path></g></svg>