<svg xmlns="http://www.w3.org/2000/svg" version="1.1" xmlns:xlink="http://www.w3.org/1999/xlink" width="512" height="512" x="0" y="0" viewBox="0 0 512 512" style="enable-background:new 0 0 512 512" xml:space="preserve" class=""><g><path fill-rule="evenodd" d="M252.749 474.441a8 8 0 0 1 0-16H369.87a8 8 0 0 1 0 16zM125.627 3.556c18.371 0 33.263 14.893 33.263 33.263s-14.893 33.263-33.263 33.263-33.263-14.893-33.263-33.263 14.892-33.263 33.263-33.263zm-.001 75.412c29.551 0 54.551 19.483 62.857 46.304 1.459 4.712.666 9.401-2.261 13.371-2.927 3.971-7.171 6.115-12.104 6.115H77.134c-4.933 0-9.177-2.144-12.104-6.115s-3.72-8.659-2.261-13.371c8.306-26.821 33.307-46.304 62.857-46.304zm127.123 31.788a8 8 0 0 1 0-16H369.87a8 8 0 0 1 0 16zm0-48.31a8 8 0 0 1 0-16h189.195a8 8 0 0 1 0 16zM125.627 185.4c18.371 0 33.263 14.893 33.263 33.263s-14.893 33.263-33.263 33.263-33.263-14.893-33.263-33.263c0-18.371 14.892-33.263 33.263-33.263zm-.001 75.411c29.551 0 54.551 19.483 62.857 46.304 1.459 4.712.666 9.401-2.261 13.371-2.927 3.971-7.171 6.115-12.104 6.115H77.134c-4.933 0-9.177-2.144-12.104-6.115s-3.72-8.659-2.261-13.371c8.306-26.821 33.307-46.304 62.857-46.304zm127.123 31.788a8 8 0 0 1 0-16H369.87a8 8 0 0 1 0 16zm0-48.31a8 8 0 0 1 0-16h189.195a8 8 0 0 1 0 16zM125.627 367.242c18.371 0 33.263 14.893 33.263 33.263s-14.893 33.263-33.263 33.263-33.263-14.893-33.263-33.263c0-18.371 14.892-33.263 33.263-33.263zm-.001 75.411c29.551 0 54.551 19.483 62.857 46.304 1.459 4.712.666 9.401-2.261 13.371-2.927 3.971-7.171 6.115-12.104 6.115H77.134c-4.933 0-9.177-2.144-12.104-6.115-2.927-3.97-3.72-8.659-2.261-13.371 8.306-26.82 33.307-46.304 62.857-46.304zm127.123-16.521a8 8 0 0 1 0-16h189.195a8 8 0 0 1 0 16z" clip-rule="evenodd" fill="CurrentColor" opacity="1" data-original="#000000" class=""></path></g></svg>