<svg xmlns="http://www.w3.org/2000/svg" version="1.1" xmlns:xlink="http://www.w3.org/1999/xlink" width="512" height="512" x="0" y="0" viewBox="0 0 60 60" style="enable-background:new 0 0 512 512" xml:space="preserve" class=""><g><path d="M47.43 15.53c0-.46-.3-.85-.74-.97s-.9.08-1.13.47l-6.27 11.01c-.18.31-.18.69 0 1s.51.5.87.5h3.13l-.12 7.19c-.01.46.29.86.73.98.09.03.18.04.27.04.35 0 .69-.19.87-.51l6.7-11.85c.18-.31.17-.68-.01-.99s-.51-.5-.86-.5h-3.44zM9.12 55h4.26c-.11-.31-.18-.65-.18-1v-8.5c0-1.53 1.14-2.79 2.62-2.98v-6.39c0-.3.06-.58.14-.85-4.45.76-7.84 4.64-7.84 9.29V54c0 .55.45 1 1 1zM37.23 55h4.26c.55 0 1-.45 1-1v-9.43c0-4.65-3.4-8.53-7.84-9.29.08.27.14.55.14.85v6.39c1.48.19 2.62 1.45 2.62 2.98V54c.01.35-.07.69-.18 1z" fill="CurrentColor" opacity="1" data-original="#000000"></path><path d="M15.2 45.5V54c0 .55.45 1 1 1h18.21c.55 0 1-.45 1-1v-8.5c0-.55-.45-1-1-1h-1.62v-8.37c0-.55-.45-1-1-1-.56 0-1 .45-1 1v8.37H19.82v-8.37c0-.55-.45-1-1-1-.56 0-1 .45-1 1v8.37H16.2c-.55 0-1 .45-1 1zM18.62 9.53c-2.46 1.84-4.09 4.66-4.38 7.76h-.98c-.55 0-1 .45-1 1v3.4c0 .55.45 1 1 1h23.69c.56 0 1-.45 1-1v-3.4c0-.55-.44-1-1-1h-.98c-.29-3.1-1.91-5.92-4.37-7.76l-1.1 6.54-10.79-.01z" fill="CurrentColor" opacity="1" data-original="#000000"></path><path d="M30.14 6.16a.996.996 0 0 0-.22-.81c-.19-.22-.47-.35-.77-.35h-8.09c-.29 0-.57.13-.76.35-.19.23-.27.52-.22.81l1.32 7.9 7.41.01zM25.11 37.13c5.39 0 9.73-6.54 9.73-11.95v-.49H15.38v.49c0 5.42 4.34 11.95 9.73 11.95zM21.83 38.49v4.01h6.97v-4.17c-1.15.51-2.39.81-3.68.81a9.268 9.268 0 0 1-3.29-.65z" fill="CurrentColor" opacity="1" data-original="#000000"></path></g></svg>