<svg xmlns="http://www.w3.org/2000/svg" version="1.1" xmlns:xlink="http://www.w3.org/1999/xlink" width="512" height="512" x="0" y="0" viewBox="0 0 512 512" style="enable-background:new 0 0 512 512" xml:space="preserve" class=""><g><path d="m292.625 76.481-88.563 153.395h120.451l88.563-153.395zm25.715 128.022h-78.806l59.264-102.648h78.806zm17.195 34.216 93.668-162.238h72l-93.668 162.238v215.016h-72zM200.021 453.735h121.514V243.876H200.021zm25.384-176.775h70.747v19.567h-70.747zm-49.958 190.775h146.089v33.298H175.447zm160.088 0h94.708v33.298h-94.708zM60.022 140.052l58.877 15.776a6.533 6.533 0 0 0 2.953.099l85.092-16.95c5.545-1.047 10.634 1.848 11.915 7.454 1.641 7.182-4.371 11.414-10.568 13.075l-79.849 21.393c-5.405 1.448-10.308 1.447-15.714 0l-59.396-15.905c-6.852-1.835-10.95-8.966-9.118-15.814 1.832-6.845 8.964-10.962 15.808-9.128zM12.601 51.866c0-14.622 7.411-28.667 20.204-36.025 5.542-3.187 11.746-4.874 18.143-4.874s12.609 1.689 18.153 4.881c12.785 7.361 20.184 21.404 20.184 36.018s-7.401 28.668-20.193 36.028c-5.542 3.189-11.746 4.876-18.144 4.876s-12.594-1.685-18.134-4.869c-12.801-7.358-20.213-21.409-20.213-36.035zm78.505 202.946H10.797v-108.85c0-22.138 18.014-40.152 40.152-40.152 17.039 0 32.245 10.786 37.884 26.827l.637 1.811-26.077-6.987a25.882 25.882 0 0 0-19.64 2.582c-5.956 3.425-10.29 9.008-12.104 15.634v.003l-.034.129a25.883 25.883 0 0 0 2.6 19.665 25.87 25.87 0 0 0 15.752 12.11l41.14 11.023v66.205zm39.101 240.561c-.621 3.293-2.693 5.659-6.244 5.659H59.096c-3.895 0-7.048-2.824-7.474-6.695L38.817 377.915a6.754 6.754 0 0 0-.427-1.696l-22.834-57.3c-3.303-8.29-4.76-15.926-4.76-24.848v-26.222h80.309V458.36c0 9.006 5.405 16.945 13.794 20.226l21.382 8.365c3.409 1.334 4.557 5.069 3.924 8.423zm-90.718 4.342.415 1.317H21.415c-2.789 0-5.053-2.275-5.058-5.061l-.267-140.503 9.859 24.75L38.66 495.764c.147 1.341.425 2.664.83 3.951z" fill="CurrentColor" opacity="1" data-original="#000000" class=""></path></g></svg>