<?xml version="1.0" standalone="no"?>
<!DOCTYPE svg PUBLIC "-//W3C//DTD SVG 20010904//EN"
 "http://www.w3.org/TR/2001/REC-SVG-20010904/DTD/svg10.dtd">
<svg version="1.0" xmlns="http://www.w3.org/2000/svg"
 width="512.000000pt" height="512.000000pt" viewBox="0 0 512.000000 512.000000"
 preserveAspectRatio="xMidYMid meet">

<g transform="translate(0.000000,512.000000) scale(0.100000,-0.100000)"
fill="#000000" stroke="none">
<path d="M1259 4663 c0 -324 -3 -387 -17 -444 -33 -124 -124 -239 -234 -295
-100 -51 -133 -54 -545 -54 l-383 0 0 -1770 c0 -1754 0 -1770 20 -1824 29 -75
86 -137 158 -169 l60 -27 1574 2 1573 3 50 27 c66 35 108 80 142 153 l28 60 3
1178 3 1177 -279 -208 c-153 -115 -293 -214 -312 -220 -81 -29 -191 -4 -246
55 -56 60 -63 87 -66 264 l-3 164 -52 6 c-95 12 -169 74 -201 168 -9 25 -12
258 -12 875 0 824 1 842 21 886 25 55 62 95 114 123 39 22 50 22 528 25 372 2
487 6 487 15 0 28 -64 120 -102 147 -86 62 -37 60 -1225 60 l-1083 0 -1 -377z
m456 -1063 c155 -53 300 -169 378 -301 80 -136 118 -338 73 -388 -19 -21 -26
-21 -342 -21 l-323 0 -20 26 c-20 26 -21 38 -21 346 l0 319 26 26 c24 24 29
25 99 19 41 -4 99 -15 130 -26z m-443 -317 c17 -15 18 -37 18 -295 l0 -278
263 0 c293 0 301 -2 313 -66 3 -19 -1 -73 -9 -122 -38 -205 -172 -384 -357
-476 -202 -99 -397 -100 -596 -1 -153 75 -278 219 -335 385 -31 90 -37 251
-14 356 52 232 246 433 477 494 94 25 214 26 240 3z m1307 -1188 c16 -8 31
-21 35 -30 3 -9 6 -350 6 -758 l1 -742 -22 -17 c-19 -16 -46 -18 -240 -18
-206 0 -220 1 -239 20 -20 20 -20 33 -20 769 l0 750 26 20 c25 20 40 21 226
21 155 0 205 -3 227 -15z m-758 -444 l24 -19 3 -509 c1 -279 0 -518 -3 -531
-3 -12 -14 -31 -25 -42 -19 -19 -34 -20 -244 -20 l-225 0 -20 26 c-21 26 -21
36 -21 544 0 508 0 518 21 544 l20 26 224 0 c204 0 225 -2 246 -19z m-793
-434 c20 -22 21 -31 23 -341 1 -297 0 -321 -17 -333 -13 -10 -72 -13 -238 -13
-212 0 -221 1 -243 22 l-23 21 0 309 0 309 26 24 c27 25 28 25 239 25 207 0
212 -1 233 -23z"/>
<path d="M1610 3254 l0 -214 211 0 211 0 -7 33 c-3 17 -22 66 -42 107 -62 129
-197 241 -335 278 l-38 10 0 -214z"/>
<path d="M1076 3139 c-169 -40 -334 -202 -374 -369 -23 -99 -24 -171 -3 -254
24 -92 57 -151 120 -220 156 -168 398 -216 596 -118 144 71 251 204 278 350
l7 32 -255 0 -254 0 -28 24 -28 24 -3 271 c-2 149 -6 271 -10 270 -4 -1 -24
-5 -46 -10z"/>
<path d="M2250 1315 l0 -635 110 0 110 0 0 635 0 635 -110 0 -110 0 0 -635z"/>
<path d="M1470 1100 l0 -420 105 0 105 0 0 420 0 420 -105 0 -105 0 0 -420z"/>
<path d="M680 885 l0 -205 110 0 110 0 0 205 0 205 -110 0 -110 0 0 -205z"/>
<path d="M610 4505 l-485 -485 356 0 c390 0 414 3 490 59 57 42 106 113 119
175 7 33 10 170 8 394 l-3 342 -485 -485z"/>
<path d="M2706 4639 l-26 -20 0 -834 c0 -458 3 -841 6 -850 12 -32 59 -45 159
-45 l95 0 0 -221 0 -221 30 -29 c23 -23 35 -29 52 -23 13 4 169 115 348 248
l325 241 653 5 653 5 19 25 c19 24 20 52 20 861 l0 836 -23 21 -23 22 -1131 0
c-1128 0 -1130 0 -1157 -21z m1488 -361 c9 -12 16 -35 16 -51 0 -33 -507 -919
-546 -954 -14 -13 -36 -23 -50 -23 -35 0 -74 42 -74 79 0 21 79 167 261 483
143 249 270 461 281 471 30 25 93 23 112 -5z m-556 -22 c74 -39 114 -120 120
-247 9 -195 -65 -319 -192 -319 -68 0 -114 25 -152 82 -77 115 -66 366 19 446
54 51 147 68 205 38z m633 -409 c24 -13 54 -38 66 -56 54 -80 69 -237 33 -353
-46 -149 -192 -202 -294 -107 -52 47 -76 111 -83 214 -10 144 38 263 122 305
53 26 102 25 156 -3z"/>
<path d="M3533 4083 c-30 -73 -15 -228 24 -240 6 -3 20 8 30 23 25 38 25 189
0 227 -24 36 -35 34 -54 -10z"/>
<path d="M4159 3678 c-17 -40 -17 -151 0 -200 16 -47 43 -51 61 -8 15 36 16
174 1 213 -15 38 -45 35 -62 -5z"/>
</g>
</svg>
