<svg xmlns="http://www.w3.org/2000/svg" version="1.1" xmlns:xlink="http://www.w3.org/1999/xlink" width="512" height="512" x="0" y="0" viewBox="0 0 64 64" style="enable-background:new 0 0 512 512" xml:space="preserve" class=""><g><path d="M14.07 9.427h3.662v3.663H14.07z" fill="CurrentColor" opacity="1" data-original="#000000" class=""></path><path d="M36.735 36.9a3.825 3.825 0 0 0 6-1.951 1 1 0 0 1 1.918 0 3.821 3.821 0 0 0 .816 1.45V5.49A1.493 1.493 0 0 0 43.981 4H10.539a1.492 1.492 0 0 0-1.49 1.49v42.686a16.988 16.988 0 0 1 8.048 0 21.652 21.652 0 0 1 4.471 1.813c1.932.972 3.457 1.741 5.642 1.405a7.745 7.745 0 0 0 4.3-2.425c.327-.3.67-.6 1.028-.9a3.774 3.774 0 0 0-1.661-3.109 1 1 0 0 1-.386-1.134 1.024 1.024 0 0 1 .979-.691 3.754 3.754 0 0 0 2.992-1.349H23.516a1 1 0 1 1 0-2h11.862a3.825 3.825 0 0 0-.2-1.758 1 1 0 0 1 1.557-1.128zm-17 6.716a1 1 0 0 1-1 1H13.07a1 1 0 0 1-1-1v-5.662a1 1 0 0 1 1-1h5.662a1 1 0 0 1 1 1zm0-9.843a1 1 0 0 1-1 1H13.07a1 1 0 0 1-1-1v-5.662a1 1 0 0 1 1-1h5.662a1 1 0 0 1 1 1zm0-9.842a1 1 0 0 1-1 1H13.07a1 1 0 0 1-1-1V18.27a1 1 0 0 1 1-1h5.662a1 1 0 0 1 1 1zm0-9.842a1 1 0 0 1-1 1H13.07a1 1 0 0 1-1-1V8.427a1 1 0 0 1 1-1h5.662a1 1 0 0 1 1 1zm3.788-3.832h17.052a1 1 0 0 1 0 2H23.52a1 1 0 0 1 0-2zm0 9.843h17.052a1 1 0 0 1 0 2H23.52a1 1 0 1 1 0-2zm0 11.842a1 1 0 0 1 0-2h17.052a1 1 0 0 1 0 2z" fill="CurrentColor" opacity="1" data-original="#000000" class=""></path><path d="M14.07 19.27h3.662v3.662H14.07zM34.674 54.673a3.779 3.779 0 0 0-3.2-1.575 1.015 1.015 0 0 1-.979-.692.864.864 0 0 1-.015-.1 8.122 8.122 0 0 1-2.962 1.064 8.886 8.886 0 0 1-1.336.1 11.81 11.81 0 0 1-5.51-1.7 19.749 19.749 0 0 0-4.072-1.659 15.026 15.026 0 0 0-7.55.127V54a1.492 1.492 0 0 0 1.49 1.49h24.592a3.952 3.952 0 0 0-.458-.817zM47.029 50.979a1.064 1.064 0 1 0 1.064 1.064 1.065 1.065 0 0 0-1.064-1.064zM14.07 38.954h3.662v3.663H14.07zM40.366 46.442a1.064 1.064 0 1 0-1.066-1.063 1.065 1.065 0 0 0 1.066 1.063z" fill="CurrentColor" opacity="1" data-original="#000000" class=""></path><path d="M51.1 42.735a5.821 5.821 0 0 1-1.111-3.283 5.815 5.815 0 0 1-3.466-.043c-.121-.039-.234-.1-.352-.145a.974.974 0 0 1-.167-.068 5.82 5.82 0 0 1-2.311-1.79 5.829 5.829 0 0 1-6.3 2.046 5.825 5.825 0 0 1-3.89 5.355 5.826 5.826 0 0 1 1.031 3.309c0 .178-.024.351-.04.526 0 .024 0 .047-.006.071a5.826 5.826 0 0 1-.985 2.713 5.77 5.77 0 0 1 3.854 4.99c0 .027.016.05.016.077a.261.261 0 0 1-.006.027c.007.087.024.173.026.26a5.829 5.829 0 0 1 6.3 2.046 5.832 5.832 0 0 1 6.3-2.046 5.825 5.825 0 0 1 3.891-5.354 5.827 5.827 0 0 1 0-6.619 5.823 5.823 0 0 1-2.784-2.072zm-10.738-.42a3.064 3.064 0 1 1-3.062 3.064 3.067 3.067 0 0 1 3.066-3.064zm6.663 12.791a3.064 3.064 0 1 1 3.064-3.063 3.066 3.066 0 0 1-3.06 3.063zm3.094-12L38.687 54.541a1 1 0 0 1-1.415-1.414l11.437-11.436a1 1 0 0 1 1.414 1.414zM14.07 29.111h3.662v3.663H14.07z" fill="CurrentColor" opacity="1" data-original="#000000" class=""></path></g></svg>