<svg width="22" height="22" viewBox="0 0 22 22" fill="none" xmlns="http://www.w3.org/2000/svg">
<path d="M11 2.0625C6.06289 2.0625 2.0625 6.06289 2.0625 11C2.0625 15.9371 6.06289 19.9375 11 19.9375C15.9371 19.9375 19.9375 15.9371 19.9375 11C19.9375 6.06289 15.9371 2.0625 11 2.0625ZM11 19.1941C8.48203 19.1941 6.22617 18.0512 4.72227 16.2594C5.48711 15.9285 7.39492 15.241 8.60234 14.8887C8.69688 14.8586 8.71406 14.8543 8.71406 14.4289C8.71406 13.9734 8.6625 13.6512 8.55078 13.4148C8.40039 13.0926 8.21992 12.5469 8.15547 12.057C7.975 11.8465 7.73008 11.434 7.57109 10.6434C7.43359 9.94727 7.49805 9.69375 7.58828 9.45742C7.59688 9.43164 7.60977 9.40586 7.61406 9.38008C7.64844 9.22109 7.60117 8.37031 7.48086 7.71289C7.39922 7.26172 7.50234 6.30352 8.12539 5.50859C8.51641 5.00586 9.26836 4.39141 10.6176 4.30547H11.3695C12.7402 4.39141 13.4922 5.00586 13.8832 5.50859C14.5063 6.30352 14.6094 7.26172 14.5234 7.71289C14.4031 8.37031 14.3559 9.2168 14.3902 9.38008C14.3945 9.40586 14.4074 9.43164 14.416 9.45312C14.5063 9.68945 14.575 9.94297 14.4332 10.6391C14.2742 11.4297 14.0293 11.8422 13.8488 12.0527C13.7844 12.5426 13.6039 13.084 13.4535 13.4105C13.3117 13.707 13.1699 14.0594 13.1699 14.4117C13.1699 14.8371 13.1871 14.8414 13.2859 14.8715C14.4332 15.2109 16.4098 15.8941 17.282 16.2508C15.7781 18.0469 13.5223 19.1941 11 19.1941Z" fill="currentColor"/>
</svg>
