<svg width="22" height="22" viewBox="0 0 22 22" fill="none" xmlns="http://www.w3.org/2000/svg">
<g clip-path="url(#clip0_1_2109)">
<path fill-rule="evenodd" clip-rule="evenodd" d="M6.60846 14.4884C4.01762 14.4747 2.07031 16.3413 2.07031 18.9392V21.9985H9.07393L10.1651 17.5496L9.84789 16.7427L9.03587 17.5547L7.83308 14.4884H6.60846ZM9.57586 21.9985H12.4255L11.3973 17.8085H10.6041L9.57586 21.9985ZM12.928 21.9985H19.9316V18.9387C19.9316 16.3413 17.9843 14.4747 15.3929 14.4884H14.1683L12.966 17.5547L12.154 16.7427L11.8363 17.5496L12.928 21.9985ZM11.7774 16.3661L11.0009 15.5897L10.2245 16.3661L10.5995 17.3192H11.4024L11.7774 16.3661Z" fill="CurrentColor"/>
<path fill-rule="evenodd" clip-rule="evenodd" d="M8.06331 13.7378L9.18845 13.0882L11.0013 14.9005L9.2184 16.6834L8.06331 13.7378ZM13.9387 13.7378L12.8136 13.0882L11.0013 14.9005L12.7842 16.6834L13.9387 13.7378ZM14.9401 5.95312L14.0844 5.95516V8.11664C14.0844 10.0183 12.8298 11.0724 11.0013 11.0724C9.17221 11.0724 7.91816 10.0183 7.91816 8.11664V5.96784L7.0625 5.96987V8.11664C7.0625 10.7993 9.04178 11.928 11.0008 11.928C12.9603 11.928 14.9401 10.7993 14.9401 8.11664V5.95312Z" fill="CurrentColor"/>
<path fill-rule="evenodd" clip-rule="evenodd" d="M7.18242 5.96875L7.19511 8.4728H6.81752C5.97151 8.4728 5.67969 7.87495 5.67969 7.22128C5.67969 6.5666 5.97151 5.96926 6.81752 5.96926L7.18242 5.96875ZM14.8159 5.96875L14.8037 8.4728H15.1813C16.0268 8.4728 16.3186 7.87495 16.3186 7.22128C16.3186 6.5666 16.0268 5.96926 15.1808 5.96926L14.8159 5.96875Z" fill="CurrentColor"/>
<path fill-rule="evenodd" clip-rule="evenodd" d="M14.9401 5.96837C13.5809 6.42665 13.2333 4.90615 13.0775 4.72649C12.471 5.65219 10.4659 6.32058 7.0625 5.96887V5.39133C7.0625 2.86698 9.04178 1.73828 11.0008 1.73828C12.9603 1.73828 14.9401 2.86698 14.9401 5.39133V5.96837Z" fill="CurrentColor"/>
<path d="M15.2949 6.70571V4.80865C15.2949 2.28024 13.4232 0.85566 10.9994 0.85566C8.57552 0.85566 6.70332 2.28024 6.70332 4.80865V6.70571H5.84766V4.80865C5.84816 1.80724 8.10201 0 10.9994 0C13.8962 0 16.1506 1.80673 16.1506 4.80865V6.70571H15.2949ZM6.75001 7.87755V8.99407C6.75001 9.31837 7.01543 9.58329 7.33973 9.58329H10.1249V10.4395H7.33973C6.95656 10.4389 6.58923 10.2865 6.31828 10.0155C6.04734 9.74457 5.89488 9.37725 5.89435 8.99407V7.87755H6.75001Z" fill="CurrentColor"/>
<path d="M11.5962 9.38281H10.405C10.1878 9.38281 10.0117 9.55891 10.0117 9.77613V10.2481C10.0117 10.4653 10.1878 10.6414 10.405 10.6414H11.5962C11.8134 10.6414 11.9895 10.4653 11.9895 10.2481V9.77613C11.9895 9.55891 11.8134 9.38281 11.5962 9.38281Z" fill="CurrentColor"/>
</g>
<defs>
<clipPath id="clip0_1_2109">
<rect width="22" height="22" fill="CurrentColor"/>
</clipPath>
</defs>
</svg>
