<?xml version="1.0" standalone="no"?>
<!DOCTYPE svg PUBLIC "-//W3C//DTD SVG 20010904//EN"
 "http://www.w3.org/TR/2001/REC-SVG-20010904/DTD/svg10.dtd">
<svg version="1.0" xmlns="http://www.w3.org/2000/svg"
 width="512.000000pt" height="512.000000pt" viewBox="0 0 512.000000 512.000000"
 preserveAspectRatio="xMidYMid meet">

<g transform="translate(0.000000,512.000000) scale(0.100000,-0.100000)"
fill="#000000" stroke="none">
<path d="M2082 4900 c-57 -14 -108 -55 -136 -111 -25 -51 -26 -58 -26 -236 0
-166 -2 -184 -17 -190 -10 -3 -52 -20 -95 -38 l-76 -32 -124 125 c-70 70 -140
132 -163 143 -53 25 -135 25 -183 0 -46 -24 -684 -664 -706 -708 -22 -43 -20
-128 3 -178 11 -23 73 -93 143 -163 l125 -124 -32 -76 c-18 -43 -35 -85 -38
-94 -6 -16 -24 -18 -191 -18 -182 0 -184 0 -237 -28 -39 -20 -62 -41 -84 -77
l-30 -48 0 -487 0 -487 30 -48 c22 -36 45 -57 84 -77 53 -28 55 -28 237 -28
167 0 185 -2 191 -17 3 -10 20 -52 38 -95 l32 -76 -125 -124 c-70 -70 -132
-140 -143 -163 -25 -53 -25 -135 0 -183 24 -46 664 -684 708 -706 43 -22 128
-20 178 3 23 11 93 73 163 143 l124 125 76 -32 c43 -18 85 -35 95 -38 15 -6
17 -24 17 -191 0 -182 0 -184 28 -237 20 -39 41 -62 77 -84 l48 -30 487 0 487
0 48 30 c36 22 57 45 77 84 28 53 28 55 28 235 l0 182 94 41 94 40 124 -125
c70 -70 140 -132 163 -143 50 -23 135 -25 178 -3 44 22 684 660 708 706 25 48
25 130 0 183 -11 23 -73 93 -143 163 l-125 124 32 76 c18 43 35 85 38 95 6 15
24 17 191 17 182 0 184 0 237 28 39 20 62 41 84 77 l30 48 0 487 0 487 -30 48
c-22 36 -45 57 -84 77 -53 28 -55 28 -237 28 -167 0 -185 2 -191 18 -3 9 -20
51 -38 94 l-32 76 125 124 c70 70 132 140 143 163 25 53 25 135 0 183 -24 46
-664 684 -708 706 -43 22 -128 20 -178 -3 -23 -11 -93 -73 -163 -143 l-124
-125 -94 40 -94 41 0 182 c0 180 0 182 -28 235 -20 39 -41 62 -77 84 l-48 30
-466 2 c-256 1 -481 -2 -499 -7z m688 -1712 l0 -543 140 140 140 140 150 -150
150 -150 -332 -333 c-183 -183 -345 -340 -360 -348 -41 -21 -108 -28 -158 -14
-40 10 -81 47 -388 353 l-342 342 150 150 150 150 140 -140 140 -140 0 543 0
542 210 0 210 0 0 -542z m860 -1588 l0 -210 -1070 0 -1070 0 0 210 0 210 1070
0 1070 0 0 -210z"/>
</g>
</svg>
