<svg width="22" height="22" viewBox="0 0 22 22" fill="none" xmlns="http://www.w3.org/2000/svg">
<g clip-path="url(#clip0_1_10882)">
<path d="M16.4382 10.0279C16.3838 9.90764 16.2958 9.80567 16.1848 9.7342C16.0738 9.66274 15.9446 9.62482 15.8126 9.625H13.0626V0.6875C13.0626 0.308 12.7546 0 12.3751 0H9.62508C9.24558 0 8.93758 0.308 8.93758 0.6875V9.625H6.18758C6.05565 9.62511 5.92653 9.66314 5.81561 9.73457C5.70469 9.806 5.61664 9.90781 5.56196 10.0279C5.44921 10.274 5.49321 10.5614 5.67058 10.7649L10.4831 16.2649C10.5474 16.3388 10.6269 16.398 10.7161 16.4385C10.8053 16.4791 10.9021 16.5001 11.0001 16.5C11.1981 16.5 11.3865 16.4134 11.5171 16.2649L16.3296 10.7649C16.5083 10.5627 16.5496 10.274 16.4382 10.0279Z" fill="CurrentColor"/>
<path d="M18.5625 15.125V19.25H3.4375V15.125H0.6875V20.625C0.6875 21.3854 1.3035 22 2.0625 22H19.9375C20.6979 22 21.3125 21.3854 21.3125 20.625V15.125H18.5625Z" fill="CurrentColor"/>
</g>
<defs>
<clipPath id="clip0_1_10882">
<rect width="22" height="22" fill="CurrentColor"/>
</clipPath>
</defs>
</svg>
