<svg xmlns="http://www.w3.org/2000/svg" version="1.1" xmlns:xlink="http://www.w3.org/1999/xlink" width="512" height="512" x="0" y="0" viewBox="0 0 128 128" style="enable-background:new 0 0 512 512" xml:space="preserve" class=""><g><path d="M101 8H80V6a6.007 6.007 0 0 0-6-6H54a6.007 6.007 0 0 0-6 6v2H27a6.007 6.007 0 0 0-6 6v108a6.007 6.007 0 0 0 6 6h74a6.007 6.007 0 0 0 6-6V14a6.007 6.007 0 0 0-6-6ZM85.5 29a2 2 0 0 1-2 2h-2.264a3.74 3.74 0 0 0-3.736 3.736v.528A3.74 3.74 0 0 0 81.236 39H83.5a2 2 0 0 1 0 4h-2.264a7.745 7.745 0 0 1-7.736-7.736v-.528A7.745 7.745 0 0 1 81.236 27H83.5a2 2 0 0 1 2 2ZM52 6a2.002 2.002 0 0 1 2-2h20a2.002 2.002 0 0 1 2 2v2H52Zm-6 6h36v4a2.002 2.002 0 0 1-2 2H48a2.002 2.002 0 0 1-2-2Zm15.688 27.41a2.448 2.448 0 0 0 1.878.589 2.022 2.022 0 0 1 2.054 1.944 2 2 0 0 1-1.944 2.054L63.44 44a6.283 6.283 0 0 1-4.555-1.737 4.722 4.722 0 0 1-1.374-3.694 4.836 4.836 0 0 1 1.896-3.565l1.248-.94-.18-.196a2.605 2.605 0 0 1-.1-.119 4.893 4.893 0 0 1-.581-5.02 4.483 4.483 0 0 1 8.367.303 4.822 4.822 0 0 1-1.58 5.58l-.016.011 2.415 2.66a2 2 0 1 1-2.96 2.689l-2.665-2.933-1.543 1.162a.857.857 0 0 0-.31.63.754.754 0 0 0 .186.578ZM44.5 27h8a2 2 0 0 1 0 4h-2v10a2 2 0 0 1-4 0V31h-2a2 2 0 0 1 0-4ZM29 58a2 2 0 0 1 2-2h36a2 2 0 0 1 0 4H31a2 2 0 0 1-2-2Zm6 58h-2a2 2 0 0 1 0-4h2a2 2 0 0 1 0 4Zm0-20h-2a2 2 0 0 1 0-4h2a2 2 0 0 1 0 4Zm0-20h-2a2 2 0 0 1 0-4h2a2 2 0 0 1 0 4Zm8 42a2 2 0 0 1-4 0v-8a2 2 0 0 1 4 0Zm0-20a2 2 0 0 1-4 0v-8a2 2 0 0 1 4 0Zm0-20a2 2 0 0 1-4 0v-8a2 2 0 0 1 4 0Zm30 42H49a2 2 0 0 1 0-4h24a2 2 0 0 1 0 4Zm20-8H49a2 2 0 0 1 0-4h44a2 2 0 0 1 0 4ZM47 98a2 2 0 0 1 2-2h24a2 2 0 0 1 0 4H49a2 2 0 0 1-2-2Zm46-6H49a2 2 0 0 1 0-4h44a2 2 0 0 1 0 4ZM47 78a2 2 0 0 1 2-2h24a2 2 0 0 1 0 4H49a2 2 0 0 1-2-2Zm46-6H49a2 2 0 0 1 0-4h44a2 2 0 0 1 0 4Zm4-20H31a2 2 0 0 1 0-4h66a2 2 0 0 1 0 4Z" fill="CurrentColor" opacity="1" data-original="#000000" class=""></path><path d="m63.864 31.65.31-.234a.86.86 0 0 0 .237-.994c-.11-.295-.287-.433-.52-.42a.556.556 0 0 0-.45.369.91.91 0 0 0 .063.881Z" fill="CurrentColor" opacity="1" data-original="#000000" class=""></path></g></svg>