<svg xmlns="http://www.w3.org/2000/svg" version="1.1" xmlns:xlink="http://www.w3.org/1999/xlink" width="512" height="512" x="0" y="0" viewBox="0 0 25 25" style="enable-background:new 0 0 512 512" xml:space="preserve" class=""><g><path d="M20.6 7.2c-.3-.4-.9-.6-1.4-.6h-2.4v-.9c0-1-.8-1.9-1.9-1.9H2.4c-1 0-1.9.8-1.9 1.9v10.4c0 1 .8 1.9 1.9 1.9h.8c.2 1.8 1.7 3.2 3.5 3.2s3.4-1.4 3.5-3.2h5.1c.2 1.8 1.7 3.2 3.5 3.2s3.4-1.4 3.5-3.2h.3c1 0 1.9-.8 1.9-1.9v-3.8c0-.5-.2-.9-.5-1.3zm-13.9 12c-.8 0-1.5-.7-1.5-1.5s.7-1.5 1.5-1.5 1.5.7 1.5 1.5-.7 1.5-1.5 1.5zm12.1 0c-.8 0-1.5-.7-1.5-1.5s.7-1.5 1.5-1.5 1.5.7 1.5 1.5c.1.8-.6 1.5-1.5 1.5zm3-6.9h-4.6c-.2 0-.3-.1-.3-.3V8.9c0-.2.1-.3.3-.3H19c.1 0 .2 0 .2.1l2.8 3.1c.2.2 0 .5-.2.5z" fill="CurrentColor" opacity="1" data-original="#000000"></path></g></svg>