<svg xmlns="http://www.w3.org/2000/svg" version="1.1" xmlns:xlink="http://www.w3.org/1999/xlink" width="512" height="512" x="0" y="0" viewBox="0 0 512 512" style="enable-background:new 0 0 512 512" xml:space="preserve" class=""><g><path fill-rule="evenodd" d="M155.93 76.37c10.16 5.28 21.69 9.72 34.19 13.21 2.78-7.73 5.92-15.07 9.45-21.87 6.48-12.49 13.9-22.7 21.99-30.43-25.3 7.05-47.84 20.75-65.63 39.09zm-8.58 365.87c0-21.24 7.58-40.73 21.55-55.94-13.33-5.39-28.95-8.12-46.57-8.12-55.09 0-90.68 27.23-90.68 69.38v42.4H66.5v-34.29c0-3.32 2.68-6 6-6 3.31 0 6 2.69 6 6v34.29h68.86v-47.72zm251.62-64.06c-17.62 0-33.24 2.74-46.57 8.12 13.97 15.2 21.55 34.69 21.55 55.94v47.72h68.87v-34.29c0-3.32 2.69-6 6-6s6 2.69 6 6v34.29h34.83v-42.4c0-42.14-35.6-69.38-90.68-69.38zm-45.85-59.23c0 25.28 20.57 45.85 45.85 45.85s45.85-20.57 45.85-45.85-20.57-45.85-45.85-45.85-45.85 20.57-45.85 45.85zm-92.47 45.63c61.54 0 101.3 30.48 101.3 77.66v47.72h-39.98v-38.72c0-3.32-2.69-6-6-6s-6 2.69-6 6v38.72h-98.64v-38.72c0-3.32-2.69-6-6-6s-6 2.69-6 6v38.72h-39.98v-47.72c0-47.18 39.76-77.66 101.3-77.66zm-92.47-45.63c0-25.28-20.57-45.85-45.85-45.85s-45.85 20.57-45.85 45.85 20.57 45.85 45.85 45.85 45.85-20.57 45.85-45.85zm148.73-48.94a175 175 0 0 0 2.6-6.68c-2.56-.57-5.17-1.09-7.79-1.59 1.94 2.6 3.67 5.37 5.19 8.27zm14.29-3.73c10.18 2.85 19.7 6.32 28.38 10.37a58.17 58.17 0 0 0-13.98 19.99 144.79 144.79 0 0 1-22.25 13.14c.55-3.34.85-6.78.85-10.28 0-4.6-.51-9.08-1.44-13.4 3.12-6.23 5.93-12.85 8.44-19.82zm-70.55-18.33c28.42 0 51.55 23.12 51.55 51.55 0 28.42-23.13 51.55-51.55 51.55s-51.55-23.13-51.55-51.55 23.14-51.55 51.55-51.55zm-58.85 15.38a175 175 0 0 0 2.6 6.68c1.52-2.89 3.26-5.66 5.19-8.27-2.63.49-5.23 1.01-7.79 1.59zm-11.69 2.95c2.51 6.97 5.32 13.59 8.44 19.82-.93 4.32-1.44 8.8-1.44 13.4 0 3.5.3 6.93.85 10.28-7.78-3.7-15.23-8.1-22.26-13.14-3.2-7.63-8-14.43-13.97-19.99 8.67-4.05 18.19-7.52 28.38-10.37zm-3.74-11.42c-6.38-21.53-10-45.71-10.5-70.93H114.8c1.18 29.56 11.08 57.5 28.82 81.24 2.49.99 4.9 2.15 7.21 3.46 10.64-5.48 22.6-10.11 35.54-13.77zm68.28-18.62v-52.31h-66.78c.49 24.26 3.99 47.43 10.12 67.96 8.52-1.95 17.39-3.5 26.53-4.63a63.177 63.177 0 0 1 30.13-11.02zm68.66 15.65c6.13-20.52 9.63-43.7 10.12-67.96h-66.78v52.31a63.177 63.177 0 0 1 30.13 11.02c9.14 1.13 18.01 2.68 26.53 4.63zm83.19-67.95h-61.07c-.5 25.22-4.12 49.4-10.5 70.93 12.94 3.66 24.9 8.28 35.55 13.77a56.86 56.86 0 0 1 7.21-3.46c17.74-23.74 27.64-51.69 28.81-81.24zm-32.89-98.35c-11.4 6.21-24.47 11.38-38.69 15.4 6.39 21.54 10.01 45.73 10.51 70.96h61.06c-1.32-32.69-13.44-62.63-32.88-86.36zm-51.87-17.88c-6.48-12.49-13.9-22.7-21.99-30.43 25.29 7.04 47.84 20.74 65.64 39.08-10.17 5.28-21.7 9.72-34.2 13.21-2.78-7.72-5.92-15.05-9.45-21.86zm1.56 36.24c-17.77 4.06-36.96 6.41-56.65 6.8v61.19h66.78c-.49-24.27-3.99-47.46-10.13-67.99zm-56.65-71.47v66.27c18.4-.38 36.29-2.52 52.85-6.23-2.5-6.81-5.3-13.27-8.42-19.28-12.32-23.76-27.92-37.98-44.43-40.76zM201.8 92.52c2.5-6.81 5.3-13.27 8.42-19.28 12.32-23.76 27.92-37.97 44.43-40.76v66.27c-18.4-.38-36.29-2.52-52.85-6.23zm-3.8 11.43c-6.14 20.53-9.64 43.72-10.13 67.99h66.78v-61.19c-19.69-.4-38.88-2.74-56.65-6.8zm-11.62-2.97c-6.39 21.53-10.01 45.73-10.51 70.96h-61.06c1.33-32.68 13.44-62.62 32.88-86.36 11.4 6.21 24.47 11.39 38.69 15.4z" clip-rule="evenodd" fill="CurrentColor" opacity="1" data-original="#000000" class=""></path></g></svg>